<?xml version="1.0" encoding="UTF-8"?>
<svg id="Capa_2" data-name="Capa 2" xmlns="http://www.w3.org/2000/svg" xmlns:xlink="http://www.w3.org/1999/xlink" viewBox="0 0 439.05 66.36">
  <defs>
    <style>
      .cls-1 {
        fill: #262626;
      }

      .cls-2 {
        fill: url(#Degradado_sin_nombre_85);
      }
    </style>
    <linearGradient id="Degradado_sin_nombre_85" data-name="Degradado sin nombre 85" x1="186.71" y1="33.18" x2="347.03" y2="33.18" gradientUnits="userSpaceOnUse">
      <stop offset="0" stop-color="#8eff4c"/>
      <stop offset="1" stop-color="#4ad8ff"/>
    </linearGradient>
  </defs>
  <g id="Capa_1-2" data-name="Capa 1">
    <g>
      <g>
        <path class="cls-1" d="M30.88,35.77c0,4.66-1.31,8.3-3.92,10.93-2.62,2.63-6.25,3.95-10.91,3.95-4.93,0-8.84-1.61-11.72-4.83-2.89-3.22-4.33-7.59-4.33-13.1s1.43-9.71,4.3-12.88c2.87-3.16,6.76-4.75,11.67-4.75,3.83,0,7.08,1.04,9.74,3.12,2.66,2.08,4.3,4.84,4.9,8.28h-5.48c-.64-2.13-1.76-3.78-3.36-4.96-1.61-1.18-3.53-1.76-5.77-1.76-3.29,0-5.87,1.14-7.74,3.42s-2.8,5.44-2.8,9.48,.95,7.37,2.86,9.74,4.5,3.57,7.77,3.57c2.78,0,5.06-.81,6.82-2.44s2.66-3.75,2.69-6.36v-.6h-8.9v-4.32h14.17v3.51Z"/>
        <path class="cls-1" d="M35.49,50.08V24.99h4.91v4.27h.12c.41-1.46,1.15-2.61,2.22-3.43,1.06-.83,2.34-1.24,3.82-1.24,.49,0,1.08,.06,1.76,.19v4.79c-.46-.19-1.23-.29-2.31-.29-1.65,0-2.96,.52-3.92,1.55-.96,1.03-1.44,2.44-1.44,4.22v15.02h-5.15Z"/>
        <path class="cls-1" d="M58.33,50.51c-2.46,0-4.47-.7-6.02-2.1-1.55-1.4-2.32-3.22-2.32-5.46s.81-3.94,2.43-5.23c1.62-1.29,3.92-2.02,6.89-2.18l6.87-.41v-1.93c0-1.4-.45-2.49-1.34-3.28-.89-.79-2.12-1.18-3.7-1.18-1.46,0-2.65,.33-3.57,.98-.91,.65-1.49,1.55-1.73,2.7h-4.86c.14-2.32,1.14-4.21,3-5.68,1.86-1.46,4.31-2.19,7.34-2.19s5.46,.75,7.26,2.24c1.8,1.49,2.71,3.5,2.71,6.01v17.29h-4.94v-4.13h-.12c-.72,1.38-1.8,2.49-3.25,3.32-1.46,.83-3.01,1.24-4.66,1.24Zm1.43-4.08c1.81,0,3.33-.55,4.57-1.66,1.23-1.11,1.85-2.47,1.85-4.09v-1.98l-6.18,.38c-1.54,.11-2.73,.49-3.56,1.13-.83,.64-1.25,1.51-1.25,2.59s.42,1.98,1.25,2.63c.83,.66,1.94,.99,3.33,.99Z"/>
        <path class="cls-1" d="M85.71,50.51c-3.18,0-5.73-1.18-7.66-3.53-1.92-2.35-2.89-5.5-2.89-9.44s.96-7.09,2.87-9.43c1.92-2.34,4.46-3.52,7.62-3.52,1.76,0,3.34,.41,4.72,1.23,1.38,.82,2.43,1.94,3.15,3.35h.1V15.67h5.18V50.08h-5.01v-4.27h-.1c-.75,1.46-1.82,2.61-3.21,3.45-1.39,.83-2.98,1.25-4.78,1.25Zm1.36-21.58c-2.04,0-3.65,.77-4.84,2.32-1.19,1.55-1.79,3.65-1.79,6.28s.6,4.75,1.79,6.3,2.81,2.31,4.84,2.31,3.58-.78,4.79-2.35c1.21-1.57,1.81-3.65,1.81-6.26s-.6-4.67-1.81-6.25c-1.21-1.57-2.81-2.36-4.79-2.36Z"/>
        <path class="cls-1" d="M108.94,20.46c-.59,.57-1.3,.86-2.12,.86s-1.53-.29-2.11-.86c-.58-.57-.87-1.26-.87-2.07s.29-1.53,.87-2.1c.58-.57,1.28-.86,2.11-.86s1.55,.29,2.13,.86c.58,.57,.87,1.27,.87,2.1s-.29,1.5-.88,2.07Zm-4.7,29.62V24.99h5.15v25.09h-5.15Z"/>
        <path class="cls-1" d="M131.28,42.71h4.89c-.37,2.31-1.54,4.19-3.53,5.65s-4.41,2.19-7.27,2.19c-3.67,0-6.56-1.16-8.67-3.47-2.11-2.31-3.16-5.46-3.16-9.43s1.05-7.11,3.16-9.51c2.11-2.4,4.92-3.6,8.45-3.6s6.22,1.13,8.25,3.4c2.03,2.27,3.05,5.31,3.05,9.12v1.76h-17.72v.31c0,2.19,.61,3.95,1.84,5.27,1.22,1.32,2.86,1.98,4.91,1.98,1.45,0,2.69-.33,3.72-1,1.03-.67,1.73-1.56,2.07-2.67Zm-1.76-12.21c-1.13-1.21-2.58-1.81-4.36-1.81s-3.26,.61-4.44,1.82c-1.18,1.22-1.83,2.79-1.96,4.71h12.54c-.06-1.94-.66-3.51-1.79-4.72Z"/>
        <path class="cls-1" d="M140.44,50.08V24.99h4.91v4.2h.12c.7-1.46,1.72-2.6,3.05-3.41s2.95-1.22,4.84-1.22c2.75,0,4.89,.82,6.42,2.47s2.29,3.92,2.29,6.81v16.24h-5.18v-15.24c0-1.91-.45-3.36-1.35-4.35-.9-.99-2.23-1.49-3.99-1.49s-3.26,.59-4.34,1.76-1.62,2.74-1.62,4.7v14.62h-5.15Z"/>
        <path class="cls-1" d="M168.53,19.05h5.17v5.94h4.77v4.08h-4.77v13.83c0,1.08,.25,1.88,.74,2.38,.49,.51,1.26,.76,2.31,.76,.76,0,1.33-.04,1.69-.12v4.08c-.64,.16-1.59,.24-2.86,.24-2.53,0-4.34-.52-5.43-1.56-1.09-1.04-1.63-2.78-1.63-5.21v-14.4h-3.65v-4.08h3.65v-5.94Z"/>
        <path class="cls-1" d="M212.75,50.08h-13.81V15.67h13.74c3.05,0,5.5,.78,7.35,2.35,1.84,1.57,2.77,3.65,2.77,6.24,0,1.83-.59,3.46-1.78,4.9-1.18,1.44-2.64,2.3-4.35,2.59v.19c2.35,.27,4.24,1.17,5.68,2.71,1.43,1.53,2.15,3.44,2.15,5.71,0,3.04-1.04,5.42-3.12,7.14-2.08,1.73-4.95,2.59-8.61,2.59Zm-8.47-30.05v10.28h5.99c2.3,0,4.08-.46,5.32-1.38s1.86-2.23,1.86-3.94c0-1.59-.52-2.81-1.57-3.67-1.05-.86-2.54-1.29-4.48-1.29h-7.11Zm0,25.68h7.37c2.4,0,4.23-.48,5.48-1.45s1.88-2.38,1.88-4.25c0-3.75-2.56-5.63-7.68-5.63h-7.06v11.33Z"/>
        <path class="cls-1" d="M247.9,47.06c-2.16,2.33-5.05,3.49-8.66,3.49s-6.49-1.16-8.66-3.49c-2.16-2.33-3.24-5.5-3.24-9.53s1.08-7.17,3.24-9.5c2.16-2.33,5.05-3.49,8.66-3.49s6.49,1.17,8.66,3.49,3.24,5.5,3.24,9.5-1.08,7.2-3.24,9.53Zm-8.66-.75c2.05,0,3.67-.77,4.87-2.31s1.79-3.7,1.79-6.46-.6-4.9-1.8-6.44-2.82-2.31-4.85-2.31-3.65,.77-4.85,2.31c-1.2,1.54-1.8,3.69-1.8,6.44s.6,4.92,1.8,6.46c1.2,1.54,2.82,2.31,4.85,2.31Z"/>
        <path class="cls-1" d="M255.13,50.08V24.99h4.91v4.27h.12c.41-1.46,1.15-2.61,2.22-3.43,1.06-.83,2.34-1.24,3.82-1.24,.49,0,1.08,.06,1.76,.19v4.79c-.46-.19-1.23-.29-2.31-.29-1.65,0-2.96,.52-3.92,1.55-.96,1.03-1.44,2.44-1.44,4.22v15.02h-5.15Z"/>
        <path class="cls-1" d="M279.5,50.51c-3.18,0-5.73-1.18-7.66-3.53-1.92-2.35-2.89-5.5-2.89-9.44s.96-7.09,2.87-9.43c1.92-2.34,4.46-3.52,7.62-3.52,1.76,0,3.34,.41,4.72,1.23,1.38,.82,2.43,1.94,3.15,3.35h.1V15.67h5.18V50.08h-5.01v-4.27h-.1c-.75,1.46-1.82,2.61-3.21,3.45-1.39,.83-2.98,1.25-4.78,1.25Zm1.36-21.58c-2.04,0-3.65,.77-4.84,2.32-1.19,1.55-1.79,3.65-1.79,6.28s.6,4.75,1.79,6.3,2.81,2.31,4.84,2.31,3.58-.78,4.79-2.35c1.21-1.57,1.81-3.65,1.81-6.26s-.6-4.67-1.81-6.25c-1.21-1.57-2.81-2.36-4.79-2.36Z"/>
        <path class="cls-1" d="M314.49,42.71h4.89c-.37,2.31-1.54,4.19-3.53,5.65s-4.41,2.19-7.27,2.19c-3.67,0-6.56-1.16-8.67-3.47-2.11-2.31-3.16-5.46-3.16-9.43s1.05-7.11,3.16-9.51c2.11-2.4,4.92-3.6,8.45-3.6s6.22,1.13,8.25,3.4c2.03,2.27,3.05,5.31,3.05,9.12v1.76h-17.72v.31c0,2.19,.61,3.95,1.84,5.27,1.22,1.32,2.86,1.98,4.91,1.98,1.45,0,2.69-.33,3.72-1,1.03-.67,1.73-1.56,2.07-2.67Zm-1.76-12.21c-1.13-1.21-2.58-1.81-4.36-1.81s-3.26,.61-4.44,1.82c-1.18,1.22-1.83,2.79-1.96,4.71h12.54c-.06-1.94-.66-3.51-1.79-4.72Z"/>
        <path class="cls-1" d="M323.64,50.08V24.99h4.91v4.27h.12c.41-1.46,1.15-2.61,2.22-3.43,1.06-.83,2.34-1.24,3.82-1.24,.49,0,1.08,.06,1.76,.19v4.79c-.46-.19-1.23-.29-2.31-.29-1.65,0-2.96,.52-3.92,1.55-.96,1.03-1.44,2.44-1.44,4.22v15.02h-5.15Z"/>
      </g>
      <path class="cls-2" d="M339.03,66.36H194.71c-4.41,0-8-3.59-8-8V8c0-4.41,3.59-8,8-8h144.31c4.41,0,8,3.59,8,8V58.36c0,4.41-3.59,8-8,8ZM194.71,5c-1.65,0-3,1.35-3,3V58.36c0,1.65,1.35,3,3,3h144.31c1.65,0,3-1.35,3-3V8c0-1.65-1.35-3-3-3H194.71Z"/>
      <g>
        <path class="cls-1" d="M364.14,29.73c-2.43,0-4.36-.8-5.79-2.41s-2.14-3.79-2.14-6.54,.72-4.91,2.15-6.52,3.36-2.42,5.78-2.42c1.97,0,3.63,.55,4.98,1.66s2.14,2.56,2.36,4.36h-2.66c-.24-1.11-.79-2-1.64-2.67-.85-.67-1.87-1-3.04-1-1.58,0-2.83,.6-3.77,1.79s-1.41,2.79-1.41,4.79,.47,3.63,1.4,4.82c.94,1.19,2.2,1.78,3.79,1.78,1.2,0,2.21-.29,3.03-.88,.82-.58,1.37-1.4,1.64-2.45h2.68c-.33,1.79-1.14,3.19-2.43,4.18s-2.93,1.49-4.93,1.49Z"/>
        <path class="cls-1" d="M373.16,24.61h2.65c.1,.86,.52,1.54,1.28,2.06,.76,.52,1.71,.78,2.86,.78s1.99-.25,2.69-.76,1.06-1.14,1.06-1.92c0-.67-.25-1.22-.76-1.65-.5-.43-1.32-.78-2.44-1.05l-2.24-.54c-1.59-.38-2.77-.96-3.52-1.72-.76-.76-1.13-1.74-1.13-2.95,0-1.49,.59-2.7,1.76-3.64,1.17-.94,2.69-1.4,4.54-1.4s3.31,.47,4.46,1.4c1.15,.93,1.75,2.15,1.79,3.64h-2.62c-.08-.86-.45-1.53-1.11-2.03s-1.51-.74-2.56-.74-1.89,.24-2.54,.72c-.65,.48-.98,1.1-.98,1.87,0,.61,.24,1.11,.73,1.49,.49,.39,1.29,.72,2.41,1l1.91,.47c1.78,.42,3.06,1,3.85,1.76s1.18,1.77,1.18,3.04c0,1.62-.6,2.9-1.8,3.85s-2.83,1.42-4.88,1.42c-1.93,0-3.49-.46-4.69-1.39-1.2-.92-1.83-2.17-1.91-3.73Z"/>
        <path class="cls-1" d="M388.09,24.61h2.65c.1,.86,.52,1.54,1.28,2.06,.76,.52,1.71,.78,2.86,.78s1.99-.25,2.69-.76,1.06-1.14,1.06-1.92c0-.67-.25-1.22-.76-1.65-.5-.43-1.32-.78-2.44-1.05l-2.24-.54c-1.59-.38-2.77-.96-3.52-1.72-.76-.76-1.13-1.74-1.13-2.95,0-1.49,.59-2.7,1.76-3.64,1.17-.94,2.69-1.4,4.54-1.4s3.31,.47,4.46,1.4c1.15,.93,1.75,2.15,1.79,3.64h-2.62c-.08-.86-.45-1.53-1.11-2.03s-1.51-.74-2.56-.74-1.89,.24-2.54,.72c-.65,.48-.98,1.1-.98,1.87,0,.61,.24,1.11,.73,1.49,.49,.39,1.29,.72,2.41,1l1.91,.47c1.78,.42,3.06,1,3.85,1.76s1.18,1.77,1.18,3.04c0,1.62-.6,2.9-1.8,3.85s-2.83,1.42-4.88,1.42c-1.93,0-3.49-.46-4.69-1.39-1.2-.92-1.83-2.17-1.91-3.73Z"/>
        <path class="cls-1" d="M420.96,29.44l-1.5-1.63c-.7,.62-1.53,1.09-2.49,1.43s-1.95,.5-2.98,.5c-1.76,0-3.18-.45-4.27-1.35-1.08-.9-1.63-2.08-1.63-3.53,0-1,.27-1.89,.82-2.66,.54-.77,1.38-1.46,2.51-2.07,.07-.04,.17-.09,.28-.15,.12-.06,.21-.11,.28-.14,.07-.04,.12-.06,.14-.07-.78-.82-1.34-1.54-1.66-2.15-.32-.61-.49-1.23-.49-1.86,0-1.12,.43-2.05,1.3-2.79,.87-.74,1.95-1.11,3.26-1.11s2.42,.36,3.26,1.09c.85,.73,1.27,1.66,1.27,2.81,0,.88-.29,1.67-.86,2.38-.57,.7-1.5,1.4-2.78,2.08l3.94,4.24c.5-.92,.74-2.29,.74-4.12v-.66h2.33v.73c0,2.41-.48,4.33-1.44,5.76l3.11,3.28h-3.16Zm-8.06-7.91c-.8,.5-1.38,.99-1.73,1.48-.35,.49-.53,1.04-.53,1.66,0,.9,.33,1.62,1,2.17,.66,.55,1.53,.83,2.6,.83,.72,0,1.42-.13,2.1-.4,.68-.26,1.23-.62,1.64-1.06l-4.55-4.97c-.14,.07-.32,.17-.54,.29Zm1.22-2.68c.94-.49,1.62-.96,2.02-1.41,.4-.45,.6-.97,.6-1.55,0-.62-.2-1.13-.61-1.52-.4-.39-.93-.59-1.58-.59s-1.15,.2-1.57,.6c-.41,.4-.62,.91-.62,1.52,0,.45,.13,.89,.4,1.33,.26,.44,.72,.98,1.36,1.62Z"/>
        <path class="cls-1" d="M363.33,54.53h-2.69v-15h-5.3v-2.32h13.29v2.32h-5.29v15Z"/>
        <path class="cls-1" d="M371.06,54.75c-1.24,0-2.25-.35-3.03-1.06s-1.17-1.62-1.17-2.75,.41-1.98,1.22-2.63c.82-.65,1.97-1.02,3.47-1.1l3.46-.2v-.97c0-.7-.22-1.25-.67-1.65-.45-.4-1.07-.59-1.86-.59-.74,0-1.33,.16-1.79,.49-.46,.33-.75,.78-.87,1.36h-2.45c.07-1.17,.58-2.12,1.51-2.86s2.17-1.1,3.7-1.1,2.75,.38,3.65,1.13c.91,.75,1.36,1.76,1.36,3.02v8.7h-2.48v-2.08h-.06c-.36,.7-.91,1.25-1.64,1.67s-1.51,.62-2.35,.62Zm.72-2.05c.91,0,1.68-.28,2.3-.83,.62-.56,.93-1.24,.93-2.06v-1l-3.11,.19c-.78,.06-1.37,.25-1.79,.57-.42,.32-.63,.76-.63,1.3s.21,.99,.63,1.33,.98,.5,1.67,.5Z"/>
        <path class="cls-1" d="M382.54,39.63c-.3,.29-.65,.43-1.07,.43s-.77-.14-1.06-.43-.44-.64-.44-1.04,.15-.77,.44-1.06,.65-.43,1.06-.43,.78,.14,1.07,.43,.44,.64,.44,1.06-.15,.76-.44,1.04Zm-2.36,14.91v-12.62h2.59v12.62h-2.59Z"/>
        <path class="cls-1" d="M385.52,54.53v-17.32h2.59v17.32h-2.59Z"/>
        <path class="cls-1" d="M407.43,41.91l-3.46,12.62h-2.7l-2.65-9.46h-.06l-2.63,9.46h-2.68l-3.47-12.62h2.59l2.3,9.94h.05l2.63-9.94h2.5l2.64,9.94h.06l2.3-9.94h2.57Z"/>
        <path class="cls-1" d="M411.46,39.63c-.3,.29-.65,.43-1.07,.43s-.77-.14-1.06-.43-.44-.64-.44-1.04,.15-.77,.44-1.06,.65-.43,1.06-.43,.78,.14,1.07,.43,.44,.64,.44,1.06-.15,.76-.44,1.04Zm-2.36,14.91v-12.62h2.59v12.62h-2.59Z"/>
        <path class="cls-1" d="M414.34,54.53v-12.62h2.47v2.11h.06c.35-.74,.86-1.31,1.54-1.72,.67-.41,1.48-.61,2.44-.61,1.38,0,2.46,.41,3.23,1.24s1.15,1.97,1.15,3.43v8.17h-2.6v-7.67c0-.96-.23-1.69-.68-2.19s-1.12-.75-2.01-.75-1.64,.3-2.18,.89-.82,1.38-.82,2.36v7.36h-2.59Z"/>
        <path class="cls-1" d="M432.47,54.75c-1.6,0-2.88-.59-3.85-1.78-.97-1.18-1.45-2.77-1.45-4.75s.48-3.57,1.45-4.75c.96-1.18,2.24-1.77,3.83-1.77,.89,0,1.68,.21,2.38,.62,.7,.41,1.22,.97,1.58,1.69h.05v-6.79h2.6v17.32h-2.52v-2.15h-.05c-.38,.74-.91,1.31-1.61,1.73s-1.5,.63-2.41,.63Zm.68-10.86c-1.02,0-1.84,.39-2.44,1.17s-.9,1.83-.9,3.16,.3,2.39,.9,3.17c.6,.78,1.41,1.16,2.44,1.16s1.8-.39,2.41-1.18,.91-1.84,.91-3.15-.3-2.35-.91-3.14-1.41-1.19-2.41-1.19Z"/>
      </g>
    </g>
  </g>
</svg>